PathFileType	4	(x/y/z)	S04_M20_T12.trc
DataRate	CameraRate	NumFrames	NumMarkers	Units	OrigDataRate	OrigDataStartFrame	OrigNumFrames
240	240	10	51	mm	240	469	535
Frame#	Time	Sternum			R.Acromium			L.Acromium			Top.Head			R.ASIS			L.ASIS			R.PSIS			L.PSIS			R.Great.Tro			L.Great.Tro			R.Iliac.Crest			L.Iliac.Crest			V.Sacral			R.Thigh.Upper.Post			R.Thigh.Lower.Ant			R.Thigh.Lower.Post			R.Thigh.Upper.Ant			R.Knee.Lat			R.Knee.Med			R.Shank.Upper.Post			R.Shank.Lower.Ant			R.Shank.Lower.Post			R.Shank.Upper.Ant			R.Ankle.Lat			R.Ankle.Med			R.Heel.Upper			R.Heel.Med			R.Heel.Lat			R.Toe.Lat			R.Toe.Med			R.Toe.Tip			L.Thigh.Upper.Post			L.Thigh.Lower.Ant			L.Thigh.Lower.Post			L.Thigh.Upper.Ant			L.Knee.Lat			L.Knee.Med			L.Shank.Upper.Post			L.Shank.Lower.Ant			L.Shank.Lower.Post			L.Shank.Upper.Ant			L.Ankle.Lat			L.Ankle.Med			L.Heel.Upper			L.Heel.Med			L.Heel.Lat			L.Toe.Lat			L.Toe.Med			L.Toe.Tip			Cervical.Spine			Back			
		X1	Y1	Z1	X2	Y2	Z2	X3	Y3	Z3	X4	Y4	Z4	X5	Y5	Z5	X6	Y6	Z6	X7	Y7	Z7	X8	Y8	Z8	X9	Y9	Z9	X10	Y10	Z10	X11	Y11	Z11	X12	Y12	Z12	X13	Y13	Z13	X14	Y14	Z14	X15	Y15	Z15	X16	Y16	Z16	X17	Y17	Z17	X18	Y18	Z18	X19	Y19	Z19	X20	Y20	Z20	X21	Y21	Z21	X22	Y22	Z22	X23	Y23	Z23	X24	Y24	Z24	X25	Y25	Z25	X26	Y26	Z26	X27	Y27	Z27	X28	Y28	Z28	X29	Y29	Z29	X30	Y30	Z30	X31	Y31	Z31	X32	Y32	Z32	X33	Y33	Z33	X34	Y34	Z34	X35	Y35	Z35	X36	Y36	Z36	X37	Y37	Z37	X38	Y38	Z38	X39	Y39	Z39	X40	Y40	Z40	X41	Y41	Z41	X42	Y42	Z42	X43	Y43	Z43	X44	Y44	Z44	X45	Y45	Z45	X46	Y46	Z46	X47	Y47	Z47	X48	Y48	Z48	X49	Y49	Z49	X50	Y50	Z50	X51	Y51	Z51	

469	1.95	1601.8	1275.3	219.39	1489.2	1503.1	406.32	1452.2	1489.1	56.445	1496.7	1829.2	222.41	1600.4	996.59	347.77	1563.2	1009	97.506	1374.7	1029.6	283.87	1371.3	1036.2	202.66	1530.8	919.02	426.63	1430	928.42	54.416	1515.8	1083.6	407.13	1459.4	1091.4	68.106	1352	991.07	244.51	1629.6	675.52	416.31	1727	632.45	369.44	1666.4	593.8	397.32	1690.3	735.01	392.96	1712.1	542.65	384.46	1684.6	529.24	249.92	1673.5	311.5	387.96	1751.6	244.54	348.65	1684.2	242.35	374.27	1737.9	313.64	369.7	1717	126.57	359.28	1735.5	145.37	269.42	1659.8	81.617	302.72	1676.5	54.042	270.4	1672.2	49.718	336.56	1840.3	78.395	383.98	1873.2	92.005	268.55	1929.3	125.35	316.39	1387.9	699.96	83.36	1456.8	593.59	86.97	1386.2	611.28	97.976	1453.3	682.53	67.916	1410.7	510.9	105.84	1423.2	503.37	231.66	1294.5	345.86	124.02	1348.8	248.73	128.22	1288.7	269.34	135.73	1355.9	324.42	115.74	1309.9	103.47	159.81	1311.2	119.7	252.45	1228.3	76.776	207.36	1233.1	51.664	241.3	1231.2	49.631	178.85	1414.6	40.651	142.72	1444.9	47.205	260.56	1503.1	53.694	212.47	1422.2	1548.3	240.21	1341.9	1290.4	227.19
470	1.9542	1606.6	1274.5	219.15	1494.7	1502.4	406.47	1456.8	1488.5	56.68	1501.8	1828.5	222.63	1605.6	995.94	347.4	1567.6	1008.3	97.284	1379.7	1029	284.32	1376	1035.6	203.13	1536.3	918.44	426.6	1434	927.99	54.633	1521.2	1082.9	407.11	1463.6	1090.8	68.293	1356.9	990.44	245.03	1634.9	674.91	416.33	1732.3	632	369.25	1671.8	593.24	397.22	1695.4	734.49	392.84	1717.8	542.41	384.35	1690.2	528.68	249.85	1683.2	310.57	387.56	1762.5	245.17	348.2	1695.2	241.68	373.79	1747.5	313.95	369.31	1730.1	126.53	358.59	1748.2	145.81	268.71	1673.8	80.536	301.83	1690.8	53.414	269.64	1686.7	48.863	335.78	1854.3	80.571	383.07	1886.8	94.991	267.61	1942.4	129.28	315.43	1390.8	699.95	83.642	1459.2	593.23	87.133	1388.7	611.29	98.198	1456.1	682.2	68.124	1412.7	510.73	105.95	1425.4	503.12	231.8	1295.7	346.19	124.26	1349.7	248.84	128.38	1289.6	269.68	135.97	1357.1	324.48	115.92	1309.9	103.72	160.1	1311.5	119.88	252.71	1228.4	77.013	207.6	1233.2	51.821	241.54	1231.2	49.916	179.01	1414.7	40.697	142.8	1445	47.028	260.65	1503.2	53.463	212.51	1427.3	1547.7	240.54	1346.8	1289.8	227.71
471	1.9583	1611.4	1273.7	218.92	1500.2	1501.6	406.62	1461.4	1487.8	56.922	1506.9	1827.7	222.85	1610.9	995.26	347.03	1571.9	1007.6	97.066	1384.8	1028.3	284.76	1380.8	1035	203.6	1541.8	917.83	426.58	1438	927.54	54.855	1526.6	1082.2	407.09	1467.9	1090.1	68.483	1361.8	989.8	245.54	1640.1	674.26	416.34	1737.5	631.52	369.07	1677.1	592.65	397.14	1700.5	733.94	392.73	1723.5	542.13	384.25	1695.8	528.08	249.78	1692.9	309.68	387.14	1773.3	245.85	347.74	1706.1	241.06	373.31	1757	314.28	368.92	1743	126.58	357.89	1760.9	146.34	268	1687.7	79.581	300.96	1705	52.908	268.85	1701.1	48.144	334.97	1868.2	82.84	382.16	1900.3	98.054	266.67	1955.2	133.25	314.48	1393.7	699.93	83.928	1461.6	592.87	87.3	1391.1	611.29	98.427	1458.9	681.86	68.334	1414.7	510.56	106.07	1427.5	502.86	231.95	1297	346.53	124.51	1350.6	248.96	128.56	1290.5	270.02	136.22	1358.3	324.53	116.1	1309.9	103.99	160.39	1311.7	120.06	252.98	1228.5	77.266	207.85	1233.3	51.999	241.79	1231.3	50.22	179.18	1414.7	40.745	142.88	1445.1	46.849	260.75	1503.3	53.228	212.56	1432.4	1547	240.87	1351.6	1289.2	228.24
472	1.9625	1616.3	1272.9	218.69	1505.8	1500.8	406.78	1465.9	1487.1	57.171	1512	1827	223.09	1616.1	994.55	346.66	1576.4	1006.8	96.854	1389.8	1027.7	285.21	1385.5	1034.4	204.07	1547.4	917.2	426.56	1442	927.07	55.082	1532.1	1081.4	407.07	1472.2	1089.4	68.674	1366.7	989.14	246.05	1645.4	673.58	416.35	1742.7	630.99	368.89	1682.5	592.02	397.06	1705.6	733.35	392.62	1729.1	541.83	384.16	1701.3	527.46	249.73	1702.4	308.83	386.72	1784	246.58	347.28	1716.8	240.51	372.82	1766.5	314.64	368.54	1755.9	126.72	357.18	1773.4	146.96	267.27	1701.5	78.746	300.09	1719	52.521	268.05	1715.4	47.558	334.15	1881.9	85.197	381.25	1913.6	101.19	265.72	1967.9	137.28	313.54	1396.6	699.9	84.216	1464.1	592.49	87.47	1393.6	611.29	98.664	1461.8	681.51	68.544	1416.7	510.39	106.2	1429.7	502.6	232.11	1298.3	346.87	124.77	1351.6	249.08	128.75	1291.5	270.37	136.47	1359.6	324.59	116.3	1309.9	104.27	160.69	1312	120.26	253.27	1228.6	77.539	208.12	1233.4	52.2	242.05	1231.3	50.545	179.37	1414.8	40.794	142.97	1445.2	46.67	260.84	1503.4	52.989	212.6	1437.5	1546.3	241.21	1356.5	1288.5	228.77
473	1.9667	1621.2	1272.1	218.47	1511.3	1500	406.95	1470.6	1486.4	57.427	1517.1	1826.2	223.34	1621.4	993.82	346.3	1580.8	1006.1	96.647	1394.9	1027	285.66	1390.3	1033.7	204.55	1552.9	916.55	426.54	1446.1	926.6	55.315	1537.6	1080.7	407.06	1476.5	1088.8	68.869	1371.7	988.47	246.57	1650.6	672.88	416.37	1747.9	630.43	368.72	1687.8	591.36	396.99	1710.7	732.73	392.52	1734.7	541.49	384.09	1706.8	526.8	249.69	1711.9	308.02	386.28	1794.5	247.34	346.81	1727.6	240.01	372.33	1775.8	315.02	368.16	1768.7	126.95	356.46	1785.8	147.65	266.54	1715.2	78.029	299.23	1733	52.246	267.24	1729.5	47.1	333.32	1895.4	87.637	380.34	1926.7	104.38	264.78	1980.4	141.35	312.61	1399.5	699.87	84.508	1466.5	592.1	87.643	1396.1	611.28	98.91	1464.6	681.15	68.756	1418.7	510.2	106.34	1431.9	502.33	232.28	1299.6	347.21	125.03	1352.5	249.21	128.94	1292.4	270.73	136.72	1360.8	324.66	116.51	1309.9	104.56	161	1312.3	120.46	253.56	1228.7	77.834	208.4	1233.5	52.427	242.32	1231.4	50.895	179.57	1414.8	40.844	143.06	1445.3	46.489	260.93	1503.5	52.745	212.64	1442.6	1545.5	241.56	1361.4	1287.9	229.31
474	1.9708	1626.1	1271.3	218.25	1516.9	1499.2	407.12	1475.2	1485.7	57.691	1522.3	1825.5	223.6	1626.7	993.06	345.95	1585.2	1005.3	96.445	1400	1026.3	286.11	1395.1	1033.1	205.02	1558.4	915.88	426.53	1450.1	926.1	55.555	1543.1	1079.9	407.05	1480.9	1088	69.066	1376.6	987.79	247.09	1655.8	672.15	416.38	1753.1	629.83	368.56	1693	590.68	396.92	1715.8	732.07	392.42	1740.3	541.13	384.02	1712.3	526.1	249.66	1721.3	307.25	385.82	1805	248.15	346.34	1738.2	239.57	371.83	1785.1	315.43	367.79	1781.3	127.26	355.74	1798	148.42	265.8	1728.8	77.426	298.38	1746.8	52.079	266.41	1743.5	46.765	332.48	1908.8	90.156	379.45	1939.6	107.64	263.85	1992.7	145.46	311.69	1402.4	699.84	84.802	1469	591.71	87.817	1398.7	611.26	99.164	1467.5	680.78	68.968	1420.8	510.01	106.5	1434.1	502.05	232.46	1300.9	347.56	125.29	1353.5	249.34	129.15	1293.4	271.1	136.98	1362.1	324.72	116.73	1309.8	104.87	161.32	1312.6	120.67	253.85	1228.9	78.155	208.69	1233.6	52.683	242.59	1231.5	51.272	179.78	1414.8	40.895	143.16	1445.4	46.309	261.02	1503.7	52.497	212.69	1447.8	1544.8	241.91	1366.3	1287.2	229.84
475	1.975	1631	1270.4	218.04	1522.5	1498.3	407.3	1479.9	1485	57.961	1527.4	1824.7	223.86	1632	992.27	345.6	1589.7	1004.5	96.249	1405.1	1025.6	286.57	1399.9	1032.4	205.5	1564	915.18	426.52	1454.2	925.6	55.803	1548.6	1079.1	407.04	1485.2	1087.3	69.266	1381.6	987.09	247.61	1661	671.4	416.4	1758.3	629.2	368.39	1698.3	589.97	396.86	1720.9	731.39	392.31	1745.8	540.73	383.95	1717.8	525.38	249.63	1730.7	306.51	385.37	1815.3	248.99	345.86	1748.7	239.19	371.32	1794.3	315.85	367.42	1793.8	127.66	355	1810.1	149.25	265.06	1742.2	76.933	297.55	1760.5	52.013	265.58	1757.4	46.548	331.63	1921.9	92.746	378.57	1952.4	110.94	262.92	2004.8	149.59	310.78	1405.3	699.79	85.099	1471.5	591.31	87.992	1401.2	611.24	99.428	1470.4	680.4	69.18	1422.8	509.8	106.68	1436.3	501.76	232.65	1302.2	347.91	125.56	1354.5	249.48	129.36	1294.4	271.47	137.25	1363.4	324.79	116.96	1309.8	105.2	161.64	1312.9	120.89	254.16	1229	78.506	208.98	1233.8	52.971	242.86	1231.5	51.678	180.01	1414.9	40.947	143.26	1445.5	46.128	261.11	1503.8	52.244	212.73	1452.9	1544	242.28	1371.2	1286.5	230.38
476	1.9792	1635.9	1269.5	217.84	1528	1497.4	407.48	1484.6	1484.2	58.239	1532.6	1823.9	224.14	1637.3	991.46	345.26	1594.1	1003.6	96.06	1410.2	1024.9	287.03	1404.8	1031.7	205.99	1569.5	914.47	426.51	1458.3	925.09	56.06	1554.1	1078.3	407.03	1489.6	1086.6	69.47	1386.6	986.39	248.14	1666.2	670.62	416.4	1763.5	628.53	368.22	1703.6	589.23	396.8	1726	730.68	392.21	1751.3	540.31	383.89	1723.2	524.64	249.61	1739.9	305.81	384.9	1825.6	249.86	345.37	1759.2	238.86	370.81	1803.4	316.29	367.05	1806.2	128.12	354.27	1822	150.14	264.32	1755.5	76.543	296.73	1774	52.043	264.74	1771.1	46.442	330.77	1934.9	95.402	377.7	1964.9	114.27	262.01	2016.7	153.74	309.9	1408.3	699.75	85.398	1474	590.9	88.167	1403.8	611.2	99.701	1473.3	680.01	69.393	1424.9	509.59	106.87	1438.6	501.47	232.85	1303.6	348.27	125.82	1355.5	249.61	129.58	1295.5	271.85	137.51	1364.7	324.86	117.19	1309.7	105.54	161.96	1313.3	121.13	254.46	1229.2	78.89	209.28	1233.9	53.291	243.13	1231.6	52.113	180.24	1414.9	40.999	143.36	1445.6	45.948	261.19	1503.9	51.987	212.78	1458.1	1543.2	242.65	1376.2	1285.8	230.92
477	1.9833	1640.9	1268.7	217.64	1533.7	1496.5	407.67	1489.3	1483.5	58.524	1537.8	1823.1	224.43	1642.6	990.62	344.92	1598.6	1002.8	95.877	1415.4	1024.2	287.5	1409.6	1031	206.48	1575.1	913.74	426.51	1462.5	924.56	56.327	1559.7	1077.4	407.03	1494.1	1085.8	69.677	1391.6	985.67	248.68	1671.4	669.82	416.41	1768.7	627.84	368.05	1708.8	588.47	396.74	1731.1	729.94	392.1	1756.8	539.86	383.83	1728.6	523.86	249.59	1749.1	305.15	384.44	1835.7	250.75	344.88	1769.5	238.58	370.3	1812.4	316.73	366.68	1818.4	128.65	353.53	1833.7	151.09	263.58	1768.6	76.253	295.92	1787.4	52.162	263.91	1784.7	46.44	329.91	1947.6	98.113	376.85	1977.3	117.64	261.11	2028.4	157.9	309.04	1411.3	699.69	85.699	1476.6	590.49	88.342	1406.4	611.17	99.984	1476.2	679.61	69.606	1426.9	509.36	107.08	1440.9	501.16	233.06	1305	348.64	126.09	1356.5	249.75	129.81	1296.5	272.23	137.78	1366	324.93	117.44	1309.6	105.9	162.29	1313.6	121.37	254.77	1229.4	79.309	209.59	1234.1	53.647	243.41	1231.7	52.579	180.49	1414.9	41.052	143.47	1445.8	45.769	261.27	1504.1	51.726	212.82	1463.3	1542.4	243.02	1381.2	1285.1	231.46
478	1.9875	1645.9	1267.7	217.45	1539.3	1495.6	407.86	1494	1482.7	58.815	1543	1822.2	224.73	1648	989.76	344.59	1603.1	1001.9	95.7	1420.6	1023.5	287.97	1414.5	1030.3	206.98	1580.7	912.99	426.51	1466.6	924.03	56.605	1565.3	1076.6	407.04	1498.5	1085	69.889	1396.7	984.95	249.23	1676.6	669.01	416.41	1773.9	627.13	367.88	1714.1	587.69	396.68	1736.2	729.19	391.98	1762.3	539.39	383.77	1733.9	523.06	249.57	1758.3	304.52	383.97	1845.7	251.67	344.38	1779.7	238.35	369.77	1821.4	317.19	366.3	1830.4	129.24	352.79	1845.4	152.09	262.85	1781.6	76.055	295.12	1800.7	52.363	263.07	1798	46.535	329.04	1960.1	100.87	376.03	1989.4	121.03	260.23	2039.9	162.06	308.2	1414.2	699.63	86.003	1479.2	590.08	88.515	1409.1	611.12	100.27	1479.1	679.21	69.82	1429	509.13	107.3	1443.2	500.85	233.27	1306.4	349.01	126.36	1357.6	249.9	130.04	1297.6	272.63	138.04	1367.4	325	117.68	1309.4	106.29	162.62	1314	121.64	255.08	1229.6	79.765	209.9	1234.3	54.04	243.68	1231.9	53.077	180.76	1414.9	41.105	143.58	1445.9	45.593	261.35	1504.2	51.461	212.87	1468.5	1541.6	243.4	1386.2	1284.3	232
